<svg width="20" height="20" viewBox="0 0 20 20" fill="none" xmlns="http://www.w3.org/2000/svg">
<path d="M6.91797 12.1597C6.91797 13.3542 7.83464 14.3171 8.97352 14.3171H11.2976C12.2883 14.3171 13.0939 13.4745 13.0939 12.4375C13.0939 11.3079 12.6032 10.9097 11.8717 10.6505L8.14019 9.35417C7.40871 9.09491 6.91797 8.69676 6.91797 7.56713C6.91797 6.53009 7.72352 5.6875 8.71426 5.6875H11.0383C12.1772 5.6875 13.0939 6.65046 13.0939 7.84491" stroke="#18171A" stroke-width="1.5" stroke-linecap="round" stroke-linejoin="round"/>
<path d="M10 4.44531V15.5564" stroke="#18171A" stroke-width="1.5" stroke-linecap="round" stroke-linejoin="round"/>
<path d="M12.6669 18.8872H7.33355C2.88911 18.8872 1.11133 17.1094 1.11133 12.6649V7.3316C1.11133 2.88715 2.88911 1.10938 7.33355 1.10938H12.6669C17.1113 1.10938 18.8891 2.88715 18.8891 7.3316V12.6649C18.8891 17.1094 17.1113 18.8872 12.6669 18.8872Z" stroke="#18171A" stroke-width="1.5" stroke-linecap="round" stroke-linejoin="round"/>
</svg>
