<svg width="18" height="18" viewBox="0 0 18 18" fill="none" xmlns="http://www.w3.org/2000/svg">
<path d="M2.25 5.0625C2.25 4.31658 2.54632 3.60121 3.07376 3.07376C3.60121 2.54632 4.31658 2.25 5.0625 2.25H12.9375C13.6834 2.25 14.3988 2.54632 14.9262 3.07376C15.4537 3.60121 15.75 4.31658 15.75 5.0625V12.9375C15.75 13.6834 15.4537 14.3988 14.9262 14.9262C14.3988 15.4537 13.6834 15.75 12.9375 15.75H5.0625C4.31658 15.75 3.60121 15.4537 3.07376 14.9262C2.54632 14.3988 2.25 13.6834 2.25 12.9375V5.0625ZM5.0625 3.375C4.61495 3.375 4.18572 3.55279 3.86926 3.86926C3.55279 4.18572 3.375 4.61495 3.375 5.0625V12.9375C3.375 13.3851 3.55279 13.8143 3.86926 14.1307C4.18572 14.4472 4.61495 14.625 5.0625 14.625H12.9375C13.3851 14.625 13.8143 14.4472 14.1307 14.1307C14.4472 13.8143 14.625 13.3851 14.625 12.9375V5.0625C14.625 4.61495 14.4472 4.18572 14.1307 3.86926C13.8143 3.55279 13.3851 3.375 12.9375 3.375H5.0625ZM4.5 12.9375C4.5 12.7883 4.55926 12.6452 4.66475 12.5398C4.77024 12.4343 4.91332 12.375 5.0625 12.375H8.4375C8.58668 12.375 8.72976 12.4343 8.83525 12.5398C8.94074 12.6452 9 12.7883 9 12.9375C9 13.0867 8.94074 13.2298 8.83525 13.3352C8.72976 13.4407 8.58668 13.5 8.4375 13.5H5.0625C4.91332 13.5 4.77024 13.4407 4.66475 13.3352C4.55926 13.2298 4.5 13.0867 4.5 12.9375ZM5.0625 10.125C4.91332 10.125 4.77024 10.1843 4.66475 10.2898C4.55926 10.3952 4.5 10.5383 4.5 10.6875C4.5 10.8367 4.55926 10.9798 4.66475 11.0852C4.77024 11.1907 4.91332 11.25 5.0625 11.25H8.4375C8.58668 11.25 8.72976 11.1907 8.83525 11.0852C8.94074 10.9798 9 10.8367 9 10.6875C9 10.5383 8.94074 10.3952 8.83525 10.2898C8.72976 10.1843 8.58668 10.125 8.4375 10.125H5.0625ZM4.5 5.625C4.5 5.32663 4.61853 5.04048 4.8295 4.8295C5.04048 4.61853 5.32663 4.5 5.625 4.5H12.375C12.6734 4.5 12.9595 4.61853 13.1705 4.8295C13.3815 5.04048 13.5 5.32663 13.5 5.625V7.875C13.5 8.17337 13.3815 8.45952 13.1705 8.6705C12.9595 8.88147 12.6734 9 12.375 9H5.625C5.32663 9 5.04048 8.88147 4.8295 8.6705C4.61853 8.45952 4.5 8.17337 4.5 7.875V5.625ZM12.375 5.625H5.625V7.875H12.375V5.625ZM11.25 10.125C10.9516 10.125 10.6655 10.2435 10.4545 10.4545C10.2435 10.6655 10.125 10.9516 10.125 11.25V12.375C10.125 12.6734 10.2435 12.9595 10.4545 13.1705C10.6655 13.3815 10.9516 13.5 11.25 13.5H12.375C12.6734 13.5 12.9595 13.3815 13.1705 13.1705C13.3815 12.9595 13.5 12.6734 13.5 12.375V11.25C13.5 10.9516 13.3815 10.6655 13.1705 10.4545C12.9595 10.2435 12.6734 10.125 12.375 10.125H11.25ZM11.25 11.25H12.375V12.375H11.25V11.25Z" fill="white"/>
</svg>
