<svg width="19" height="19" viewBox="0 0 19 19" fill="none" xmlns="http://www.w3.org/2000/svg">
<g clip-path="url(#clip0_68_494)">
<path d="M8.54632 8.76406V6.06406L12.832 9.66406L8.54632 13.2641V10.5641H0.832031V8.76406H8.54632ZM2.08157 12.3641H3.90191C4.91914 15.0027 7.38285 16.8641 10.2606 16.8641C14.0477 16.8641 17.1177 13.6405 17.1177 9.66406C17.1177 5.68761 14.0477 2.46406 10.2606 2.46406C7.38285 2.46406 4.91914 4.32542 3.90191 6.96406H2.08157C3.17381 3.31266 6.42263 0.664062 10.2606 0.664062C14.9944 0.664062 18.832 4.6935 18.832 9.66406C18.832 14.6346 14.9944 18.6641 10.2606 18.6641C6.42263 18.6641 3.17381 16.0155 2.08157 12.3641Z" fill="white"/>
</g>
<defs>
<clipPath id="clip0_68_494">
<rect width="19" height="19" fill="white"/>
</clipPath>
</defs>
</svg>
