<svg width="85" height="85" viewBox="0 0 85 85" fill="none" xmlns="http://www.w3.org/2000/svg">
<path d="M77.2073 49.5576C75.7405 56.7171 72.0942 63.2481 66.7682 68.2555C61.4422 73.263 54.6971 76.5017 47.4573 77.528V70.3602C52.8045 69.4071 57.7655 66.9398 61.7509 63.2516C65.7363 59.5634 68.5785 54.8093 69.9398 49.5541L77.2073 49.5576ZM15.0581 49.5576C16.4047 54.7521 19.1986 59.458 23.1151 63.1285C27.0315 66.799 31.9098 69.2834 37.1829 70.2929V77.4784C30.0143 76.3868 23.353 73.1244 18.0973 68.1312C12.8417 63.138 9.2444 56.6542 7.79065 49.5541H15.0581V49.5576ZM63.749 38.9351V46.0144H60.2073C56.5727 46.0144 53.0771 47.4106 50.4436 49.9141C47.8101 52.4177 46.2401 55.8371 46.0584 59.4651L46.0406 60.173V63.7127H38.9573V60.173C38.9573 56.5405 37.5604 53.0469 35.0554 50.4149C32.5504 47.7828 29.129 46.2137 25.499 46.0321L24.7907 46.0144H21.249V38.9351H63.749ZM42.499 7.07812C60.8625 7.07812 75.9642 21.0492 77.7386 38.9351H70.6127C69.7485 32.0925 66.4156 25.8004 61.2394 21.2392C56.0633 16.678 49.3997 14.1613 42.499 14.1613C35.5982 14.1613 28.9346 16.678 23.7585 21.2392C18.5824 25.8004 15.2495 32.0925 14.3852 38.9351H7.25586C9.03378 21.0492 24.1354 7.07812 42.499 7.07812Z" fill="white"/>
<path d="M22.6204 35.6953L26.4084 24.3466H28.3794L32.1675 35.6953H30.5506L29.5497 32.7234H25.2073L24.2218 35.6953H22.6204ZM25.5769 31.3221H29.1648L27.3785 25.7017L25.5769 31.3221ZM37.3639 35.7877C36.7377 35.7877 36.1628 35.7312 35.6393 35.6183C35.1157 35.5054 34.664 35.3155 34.2842 35.0486C33.9044 34.7714 33.6118 34.3967 33.4065 33.9245C33.2114 33.4523 33.1139 32.8568 33.1139 32.1382V24.3466H34.6691V32.1228C34.6691 32.708 34.7718 33.1648 34.9771 33.4933C35.1927 33.8116 35.5007 34.0425 35.901 34.1863C36.3117 34.3197 36.7993 34.3864 37.3639 34.3864C37.9388 34.3864 38.4264 34.3197 38.8268 34.1863C39.2374 34.0425 39.5454 33.8116 39.7507 33.4933C39.9663 33.1648 40.074 32.708 40.074 32.1228V24.3466H41.6293V32.1382C41.6293 32.8568 41.5266 33.4523 41.3213 33.9245C41.116 34.3967 40.8234 34.7714 40.4436 35.0486C40.074 35.3155 39.6275 35.5054 39.1039 35.6183C38.5804 35.7312 38.0004 35.7877 37.3639 35.7877ZM46.229 35.6953V25.7325H42.8413V24.3466H51.1719V25.7325H47.7843V35.6953H46.229ZM56.6594 35.7877C55.9202 35.7877 55.2684 35.7158 54.7037 35.5721C54.1494 35.4284 53.6823 35.1615 53.3025 34.7714C52.9329 34.3813 52.6557 33.8064 52.471 33.0468C52.2862 32.2871 52.1938 31.2913 52.1938 30.0594C52.1938 28.8276 52.2862 27.8318 52.471 27.0721C52.6557 26.3022 52.938 25.7171 53.3179 25.3167C53.6977 24.9061 54.1648 24.6289 54.7191 24.4852C55.2735 24.3312 55.9202 24.2542 56.6594 24.2542C57.419 24.2542 58.076 24.3312 58.6304 24.4852C59.195 24.6289 59.6621 24.9061 60.0316 25.3167C60.4012 25.7171 60.6784 26.3022 60.8632 27.0721C61.0479 27.8318 61.1403 28.8276 61.1403 30.0594C61.1403 31.2913 61.0479 32.2871 60.8632 33.0468C60.6784 33.8064 60.3961 34.3813 60.0162 34.7714C59.6467 35.1615 59.1796 35.4284 58.615 35.5721C58.0606 35.7158 57.4088 35.7877 56.6594 35.7877ZM56.6594 34.4018C57.1932 34.4018 57.6449 34.3454 58.0144 34.2325C58.3943 34.1195 58.6971 33.9142 58.9229 33.6165C59.1591 33.3085 59.3284 32.8722 59.4311 32.3076C59.5338 31.7328 59.5851 30.9834 59.5851 30.0594C59.5851 29.0842 59.5286 28.304 59.4157 27.7189C59.313 27.1337 59.1488 26.6923 58.9229 26.3946C58.6971 26.0969 58.3943 25.8967 58.0144 25.794C57.6449 25.6914 57.1932 25.6401 56.6594 25.6401C56.1563 25.6401 55.7201 25.6914 55.3505 25.794C54.9809 25.8967 54.6781 26.0969 54.442 26.3946C54.2059 26.6923 54.0262 27.1337 53.903 27.7189C53.7901 28.304 53.7336 29.0842 53.7336 30.0594C53.7336 30.9834 53.7798 31.7328 53.8722 32.3076C53.9749 32.8722 54.1391 33.3085 54.365 33.6165C54.6011 33.9142 54.9039 34.1195 55.2735 34.2325C55.6533 34.3454 56.1153 34.4018 56.6594 34.4018Z" fill="white"/>
</svg>
