<svg width="55" height="55" viewBox="0 0 55 55" fill="none" xmlns="http://www.w3.org/2000/svg">
<path d="M54.0411 32.7928C52.9194 38.2526 50.1311 43.2331 46.0583 47.0516C41.9854 50.8702 36.8274 53.3401 31.2911 54.1227V48.6566C35.3801 47.9298 39.1739 46.0483 42.2215 43.2357C45.2691 40.4231 47.4426 36.7977 48.4836 32.7901L54.0411 32.7928ZM6.51529 32.7928C7.54503 36.7541 9.68151 40.3428 12.6765 43.1418C15.6714 45.9409 19.4018 47.8354 23.4342 48.6053V54.0849C17.9523 53.2524 12.8584 50.7646 8.83937 46.9568C4.82032 43.1491 2.06947 38.2046 0.957787 32.7901H6.51529V32.7928ZM43.7495 24.6923V30.0908H41.0411C38.2617 30.0908 35.5886 31.1555 33.5748 33.0647C31.5609 34.9739 30.3603 37.5815 30.2213 40.3482L30.2078 40.888V43.5873H24.7911V40.888C24.7911 38.1179 23.7229 35.4537 21.8073 33.4466C19.8917 31.4394 17.2754 30.2429 14.4995 30.1043L13.9578 30.0908H11.2495V24.6923H43.7495ZM27.4995 0.398609C41.5422 0.398609 53.0905 11.0527 54.4474 24.6923H48.9982C48.3373 19.4742 45.7886 14.6759 41.8304 11.1976C37.8722 7.71931 32.7765 5.8001 27.4995 5.8001C22.2224 5.8001 17.1267 7.71931 13.1685 11.1976C9.21029 14.6759 6.66162 19.4742 6.0007 24.6923H0.548828C1.90841 11.0527 13.4567 0.398609 27.4995 0.398609Z" fill="white"/>
</svg>
