<svg width="46" height="46" viewBox="0 0 46 46" fill="none" xmlns="http://www.w3.org/2000/svg">
<path d="M40.25 23.0038C40.2555 26.4284 39.2369 29.7765 37.3252 32.6178C35.7486 34.9696 33.6167 36.8966 31.1182 38.2285C28.6196 39.5603 25.8314 40.2559 23 40.2538C20.1686 40.2559 17.3804 39.5603 14.8819 38.2285C12.3833 36.8966 10.2514 34.9696 8.67484 32.6178C7.17357 30.3799 6.21748 27.8215 5.88322 25.1475C5.54896 22.4735 5.84582 19.7584 6.75002 17.2199C7.65421 14.6813 9.14058 12.3899 11.09 10.5293C13.0394 8.66871 15.3975 7.29073 17.9755 6.5058C20.5534 5.72087 23.2794 5.55083 25.9349 6.00932C28.5904 6.4678 31.1015 7.54206 33.267 9.14597C35.4325 10.7499 37.1921 12.8388 38.4048 15.2453C39.6174 17.6519 40.2494 20.309 40.25 23.0038Z" stroke="white" stroke-width="2"/>
<path d="M25.8751 17.2526C25.8751 18.0151 25.5722 18.7464 25.033 19.2855C24.4938 19.8247 23.7626 20.1276 23.0001 20.1276V22.0443C23.6293 22.0443 24.2524 21.9203 24.8338 21.6795C25.4151 21.4387 25.9433 21.0858 26.3883 20.6408C26.8332 20.1959 27.1862 19.6676 27.427 19.0863C27.6678 18.5049 27.7917 17.8819 27.7917 17.2526H25.8751ZM23.0001 20.1276C22.2376 20.1276 21.5063 19.8247 20.9671 19.2855C20.428 18.7464 20.1251 18.0151 20.1251 17.2526H18.2084C18.2084 17.8819 18.3323 18.5049 18.5731 19.0863C18.8139 19.6676 19.1669 20.1959 19.6118 20.6408C20.5105 21.5394 21.7292 22.0443 23.0001 22.0443V20.1276ZM20.1251 17.2526C20.1251 16.4901 20.428 15.7588 20.9671 15.2197C21.5063 14.6805 22.2376 14.3776 23.0001 14.3776V12.4609C21.7292 12.4609 20.5105 12.9658 19.6118 13.8644C18.7132 14.763 18.2084 15.9818 18.2084 17.2526H20.1251ZM23.0001 14.3776C23.7626 14.3776 24.4938 14.6805 25.033 15.2197C25.5722 15.7588 25.8751 16.4901 25.8751 17.2526H27.7917C27.7917 15.9818 27.2869 14.763 26.3883 13.8644C25.4897 12.9658 24.2709 12.4609 23.0001 12.4609V14.3776ZM9.90157 34.2266L8.98157 33.9544L8.83398 34.4547L9.17323 34.8514L9.90157 34.2266ZM36.0986 34.2266L36.8269 34.8514L37.1662 34.4547L37.0167 33.9544L36.0986 34.2266ZM17.2501 29.7109H28.7501V27.7943H17.2501V29.7109ZM17.2501 27.7943C15.3925 27.794 13.5846 28.3934 12.0951 29.5033C10.6057 30.6133 9.51241 32.1744 8.98157 33.9544L10.8197 34.5007C11.2328 33.1163 12.0819 31.9024 13.2405 31.0394C14.3991 30.1764 15.8054 29.7104 17.2501 29.7109V27.7943ZM23.0001 39.2943C20.6488 39.2968 18.325 38.7891 16.1891 37.8063C14.0531 36.8236 12.1557 35.389 10.628 33.6018L9.17323 34.8514C10.8811 36.8481 13.0017 38.4507 15.3887 39.5486C17.7758 40.6465 20.3726 41.2137 23.0001 41.2109V39.2943ZM28.7501 29.7109C30.195 29.7106 31.6015 30.1768 32.7601 31.0401C33.9187 31.9035 34.7676 33.1179 35.1805 34.5026L37.0167 33.9544C36.4858 32.1744 35.3945 30.6133 33.905 29.5033C32.4156 28.3934 30.6076 27.794 28.7501 27.7943V29.7109ZM35.3722 33.6018C33.8444 35.389 31.9471 36.8236 29.8111 37.8063C27.6751 38.7891 25.3513 39.2968 23.0001 39.2943V41.2109C25.6275 41.2137 28.2243 40.6465 30.6114 39.5486C32.9985 38.4507 35.1191 36.8481 36.8269 34.8514L35.3722 33.6018Z" fill="white"/>
</svg>
