<svg width="18" height="18" viewBox="0 0 18 18" fill="none" xmlns="http://www.w3.org/2000/svg">
<g clip-path="url(#clip0_68_501)">
<path d="M15.9883 5.35831L15.6178 4.71631C15.338 4.23031 15.1978 3.98731 14.9593 3.89056C14.7215 3.79306 14.4523 3.87031 13.913 4.02256L12.998 4.28056C12.6538 4.36006 12.293 4.31506 11.9795 4.15306L11.7268 4.00756C11.4575 3.835 11.2504 3.58089 11.1358 3.28231L10.8853 2.53381C10.7203 2.03881 10.6378 1.79131 10.442 1.65031C10.2463 1.50781 9.98526 1.50781 9.46476 1.50781H8.62851C8.10801 1.50781 7.84776 1.50781 7.65126 1.65031C7.45551 1.79131 7.37376 2.03881 7.20876 2.53381L6.95826 3.28231C6.84342 3.58099 6.63607 3.83512 6.36651 4.00756L6.11376 4.15381C5.80026 4.31506 5.43876 4.36006 5.09526 4.28131L4.18026 4.02256C3.64101 3.87031 3.37176 3.79381 3.13401 3.89056C2.89551 3.98731 2.75526 4.23031 2.47551 4.71556L2.10576 5.35831C1.84326 5.81431 1.71201 6.04156 1.73751 6.28381C1.76301 6.52681 1.93851 6.72181 2.28951 7.11256L3.06276 7.97731C3.25176 8.21656 3.38601 8.63356 3.38601 9.00856C3.38601 9.38356 3.25176 9.80056 3.06351 10.0398L2.28951 10.9038C1.93851 11.2946 1.76301 11.4903 1.73751 11.7326C1.71201 11.9748 1.84251 12.2028 2.10501 12.6581L2.47551 13.3008C2.75526 13.7861 2.89551 14.0291 3.13401 14.1258C3.37251 14.2226 3.64101 14.1468 4.18026 13.9938L5.09526 13.7358C5.43943 13.657 5.80036 13.7022 6.11451 13.8633L6.36651 14.0088C6.63651 14.1813 6.84351 14.4363 6.95751 14.7348L7.20801 15.4826C7.37301 15.9776 7.45551 16.2251 7.65126 16.3676C7.84776 16.5086 8.10801 16.5086 8.62851 16.5086H9.46476C9.98526 16.5086 10.2463 16.5086 10.442 16.3668C10.6378 16.2251 10.7203 15.9776 10.8845 15.4826L11.1358 14.7348C11.2498 14.4356 11.4568 14.1813 11.7268 14.0088L11.9788 13.8633C12.2938 13.7021 12.6538 13.6563 12.9988 13.7358L13.9138 13.9938C14.4523 14.1468 14.7215 14.2233 14.9593 14.1266C15.1978 14.0291 15.338 13.7861 15.6178 13.3008L15.9875 12.6581C16.25 12.2028 16.3813 11.9756 16.3558 11.7326C16.3303 11.4896 16.1548 11.2946 15.8038 10.9038L15.0305 10.0398C14.8415 9.79981 14.7073 9.38356 14.7073 9.00856C14.7073 8.63356 14.8415 8.21656 15.0298 7.97731L15.8038 7.11256C16.1548 6.72256 16.3303 6.52681 16.3558 6.28381C16.3813 6.04081 16.2508 5.81431 15.9883 5.35831Z" stroke="white" stroke-width="1.5" stroke-linecap="round" stroke-linejoin="round"/>
<path d="M11.6406 9C11.6406 9.69619 11.3641 10.3639 10.8718 10.8562C10.3795 11.3484 9.71182 11.625 9.01562 11.625C8.31943 11.625 7.65175 11.3484 7.15947 10.8562C6.66719 10.3639 6.39063 9.69619 6.39062 9C6.39063 8.30381 6.66719 7.63613 7.15947 7.14384C7.65175 6.65156 8.31943 6.375 9.01562 6.375C9.71182 6.375 10.3795 6.65156 10.8718 7.14384C11.3641 7.63613 11.6406 8.30381 11.6406 9Z" stroke="white" stroke-width="1.5" stroke-linecap="round" stroke-linejoin="round"/>
</g>
<defs>
<clipPath id="clip0_68_501">
<rect width="18" height="18" fill="white"/>
</clipPath>
</defs>
</svg>
